<svg xmlns="http://www.w3.org/2000/svg" viewBox="0 0 192 192" role="img" aria-label="Trinity Grade 7 Scales">
  <rect width="192" height="192" fill="#17362f"/>
  <g transform="translate(16 16) scale(.8333)">
    <path d="M47 50h98v18H47z" fill="#edf2ec"/>
    <path d="M57 68h13v61c0 8-5 14-13 14s-13-6-13-14 5-14 13-14v-47zm31 0h13v61c0 8-5 14-13 14s-13-6-13-14 5-14 13-14v-47zm31 0h13v61c0 8-5 14-13 14s-13-6-13-14 5-14 13-14v-47z" fill="#edf2ec"/>
    <path d="M47 143h98v12H47z" fill="#c97129"/>
  </g>
</svg>
